<?xml version="1.0" standalone="no"?>
<!DOCTYPE svg PUBLIC "-//W3C//DTD SVG 20010904//EN"
 "http://www.w3.org/TR/2001/REC-SVG-20010904/DTD/svg10.dtd">
<svg version="1.0" xmlns="http://www.w3.org/2000/svg"
 width="800.000000pt" height="160.000000pt" viewBox="0 0 800.000000 160.000000"
 preserveAspectRatio="xMidYMid meet">
<metadata>
Created by potrace 1.16, written by Peter Selinger 2001-2019
</metadata>
<g transform="translate(0.000000,160.000000) scale(0.100000,-0.100000)"
fill="#000000" stroke="none">
<path d="M47 738 c-71 -54 -6 -182 68 -134 21 14 25 14 25 2 0 -28 -22 -64
-42 -69 -11 -3 -27 2 -39 14 -21 21 -39 25 -39 9 0 -19 40 -50 64 -50 44 0 78
40 84 98 2 28 2 62 -2 76 -14 55 -79 84 -119 54z"/>
<path d="M1012 670 c-60 -56 -27 -160 51 -160 22 0 41 8 55 23 37 40 20 53
-24 18 -13 -11 -33 -17 -43 -14 -19 5 -44 47 -34 57 4 3 33 6 65 6 52 0 58 2
58 20 0 31 -44 70 -78 70 -15 0 -38 -9 -50 -20z"/>
</g>
</svg>
